# xmcd CD database file
#
# Track frame offsets:
#	150
#	24869
#	41739
#	63729
#	81314
#	97762
#	113203
#	134395
#	149708
#	164804
#	186283
#	200404
#	223240
#
# Disc length: 3193 seconds
#
# Revision: 0
# Processed by: cddbd v1.5.2PL0 Copyright (c) Steve Scherf et al.
# Submitted via: CDex 1.51
#
DISCID=c90c770d
DTITLE=Emmylou Harris - Hard Bargain
DYEAR=2011
DGENRE=Country
TTITLE0=The Road
TTITLE1=Home Sweet Home
TTITLE2=My Name Is Emmett Till
TTITLE3=Goodnight Old World
TTITLE4=New Orleans
TTITLE5=Big Black Dog
TTITLE6=Lonely Girl
TTITLE7=Hard Bargain
TTITLE8=Six White Cadillacs
TTITLE9=The Ship On His Arm
TTITLE10=Darlin Kate
TTITLE11=Nobody
TTITLE12=Cross Yourself
EXTD=YEAR: 2011
EXTT0=
EXTT1=
EXTT2=
EXTT3=
EXTT4=
EXTT5=
EXTT6=
EXTT7=
EXTT8=
EXTT9=
EXTT10=
EXTT11=
EXTT12=
PLAYORDER=
